<mxfile host="app.diagrams.net" modified="2024-03-29T05:52:21.575Z" agent="Mozilla/5.0 (Windows NT 10.0; Win64; x64) AppleWebKit/537.36 (KHTML, like Gecko) Chrome/122.0.0.0 Safari/537.36" etag="gVQEqKLDS6iUM5ikKeSh" version="24.2.1" type="google" pages="2">
  <diagram name="Page-1" id="sUV660QRLb9GWtnvWiSY">
    <mxGraphModel grid="1" page="1" gridSize="10" guides="1" tooltips="1" connect="1" arrows="1" fold="1" pageScale="1" pageWidth="1654" pageHeight="1169" math="0" shadow="0">
      <root>
        <mxCell id="0" />
        <mxCell id="1" parent="0" />
        <mxCell id="xEwWNTtIfGPYKrBFahtm-1" value="Server/Client/Message Sequence Diagram" style="rounded=0;whiteSpace=wrap;html=1;fontSize=30;" vertex="1" parent="1">
          <mxGeometry x="230" y="70" width="590" height="30" as="geometry" />
        </mxCell>
        <mxCell id="xEwWNTtIfGPYKrBFahtm-6" value="&lt;font style=&quot;font-size: 20px;&quot;&gt;Client&lt;/font&gt;" style="rounded=0;whiteSpace=wrap;html=1;" vertex="1" parent="1">
          <mxGeometry x="30" y="160" width="90" height="30" as="geometry" />
        </mxCell>
        <mxCell id="xEwWNTtIfGPYKrBFahtm-7" value="" style="endArrow=none;dashed=1;html=1;rounded=0;entryX=0.5;entryY=1;entryDx=0;entryDy=0;" edge="1" parent="1" target="xEwWNTtIfGPYKrBFahtm-6">
          <mxGeometry width="50" height="50" relative="1" as="geometry">
            <mxPoint x="75" y="660" as="sourcePoint" />
            <mxPoint x="315" y="300" as="targetPoint" />
          </mxGeometry>
        </mxCell>
        <mxCell id="xEwWNTtIfGPYKrBFahtm-8" value="&lt;font style=&quot;font-size: 20px;&quot;&gt;Server&lt;/font&gt;" style="rounded=0;whiteSpace=wrap;html=1;" vertex="1" parent="1">
          <mxGeometry x="190" y="160" width="90" height="30" as="geometry" />
        </mxCell>
        <mxCell id="xEwWNTtIfGPYKrBFahtm-9" value="" style="endArrow=none;dashed=1;html=1;rounded=0;entryX=0.5;entryY=1;entryDx=0;entryDy=0;" edge="1" parent="1" target="xEwWNTtIfGPYKrBFahtm-8">
          <mxGeometry width="50" height="50" relative="1" as="geometry">
            <mxPoint x="235" y="660" as="sourcePoint" />
            <mxPoint x="475" y="300" as="targetPoint" />
          </mxGeometry>
        </mxCell>
        <mxCell id="xEwWNTtIfGPYKrBFahtm-11" value="&lt;font style=&quot;font-size: 20px;&quot;&gt;Log in&lt;/font&gt;" style="rounded=0;whiteSpace=wrap;html=1;" vertex="1" parent="1">
          <mxGeometry x="350" y="160" width="90" height="30" as="geometry" />
        </mxCell>
        <mxCell id="xEwWNTtIfGPYKrBFahtm-12" value="" style="endArrow=none;dashed=1;html=1;rounded=0;entryX=0.5;entryY=1;entryDx=0;entryDy=0;" edge="1" parent="1" target="xEwWNTtIfGPYKrBFahtm-11">
          <mxGeometry width="50" height="50" relative="1" as="geometry">
            <mxPoint x="395" y="660" as="sourcePoint" />
            <mxPoint x="635" y="300" as="targetPoint" />
          </mxGeometry>
        </mxCell>
        <mxCell id="EvLjOWbeyxVQ1FRXQmD_-1" value="&lt;span style=&quot;font-size: 20px;&quot;&gt;DirectMsg&lt;/span&gt;" style="rounded=0;whiteSpace=wrap;html=1;" vertex="1" parent="1">
          <mxGeometry x="500" y="160" width="110" height="30" as="geometry" />
        </mxCell>
        <mxCell id="EvLjOWbeyxVQ1FRXQmD_-2" value="" style="endArrow=none;dashed=1;html=1;rounded=0;entryX=0.5;entryY=1;entryDx=0;entryDy=0;" edge="1" parent="1" target="EvLjOWbeyxVQ1FRXQmD_-1">
          <mxGeometry width="50" height="50" relative="1" as="geometry">
            <mxPoint x="555" y="660" as="sourcePoint" />
            <mxPoint x="795" y="300" as="targetPoint" />
          </mxGeometry>
        </mxCell>
        <mxCell id="EvLjOWbeyxVQ1FRXQmD_-3" value="&lt;font style=&quot;font-size: 20px;&quot;&gt;GroupChatMsg&lt;/font&gt;" style="rounded=0;whiteSpace=wrap;html=1;" vertex="1" parent="1">
          <mxGeometry x="650" y="160" width="140" height="30" as="geometry" />
        </mxCell>
        <mxCell id="EvLjOWbeyxVQ1FRXQmD_-4" value="" style="endArrow=none;dashed=1;html=1;rounded=0;entryX=0.5;entryY=1;entryDx=0;entryDy=0;" edge="1" parent="1" target="EvLjOWbeyxVQ1FRXQmD_-3">
          <mxGeometry width="50" height="50" relative="1" as="geometry">
            <mxPoint x="715" y="660" as="sourcePoint" />
            <mxPoint x="955" y="300" as="targetPoint" />
          </mxGeometry>
        </mxCell>
        <mxCell id="EvLjOWbeyxVQ1FRXQmD_-7" value="&lt;font style=&quot;font-size: 20px;&quot;&gt;ContactListMsg&lt;/font&gt;" style="rounded=0;whiteSpace=wrap;html=1;" vertex="1" parent="1">
          <mxGeometry x="820" y="160" width="150" height="30" as="geometry" />
        </mxCell>
        <mxCell id="EvLjOWbeyxVQ1FRXQmD_-8" value="" style="endArrow=none;dashed=1;html=1;rounded=0;entryX=0.5;entryY=1;entryDx=0;entryDy=0;" edge="1" parent="1" target="EvLjOWbeyxVQ1FRXQmD_-7">
          <mxGeometry width="50" height="50" relative="1" as="geometry">
            <mxPoint x="895" y="660" as="sourcePoint" />
            <mxPoint x="1135" y="300" as="targetPoint" />
          </mxGeometry>
        </mxCell>
        <mxCell id="EvLjOWbeyxVQ1FRXQmD_-9" value="" style="endArrow=classic;html=1;rounded=0;" edge="1" parent="1">
          <mxGeometry width="50" height="50" relative="1" as="geometry">
            <mxPoint x="80" y="230" as="sourcePoint" />
            <mxPoint x="230" y="230" as="targetPoint" />
          </mxGeometry>
        </mxCell>
        <mxCell id="EvLjOWbeyxVQ1FRXQmD_-10" value="Login Message" style="text;html=1;align=center;verticalAlign=middle;whiteSpace=wrap;rounded=0;" vertex="1" parent="1">
          <mxGeometry x="120" y="200" width="60" height="30" as="geometry" />
        </mxCell>
        <mxCell id="EvLjOWbeyxVQ1FRXQmD_-11" value="" style="endArrow=classic;html=1;rounded=0;" edge="1" parent="1">
          <mxGeometry width="50" height="50" relative="1" as="geometry">
            <mxPoint x="240" y="250" as="sourcePoint" />
            <mxPoint x="390" y="250" as="targetPoint" />
          </mxGeometry>
        </mxCell>
        <mxCell id="EvLjOWbeyxVQ1FRXQmD_-12" value="Login Message" style="text;html=1;align=center;verticalAlign=middle;whiteSpace=wrap;rounded=0;" vertex="1" parent="1">
          <mxGeometry x="280" y="220" width="60" height="30" as="geometry" />
        </mxCell>
        <mxCell id="EvLjOWbeyxVQ1FRXQmD_-13" value="" style="endArrow=classic;html=1;rounded=0;" edge="1" parent="1">
          <mxGeometry width="50" height="50" relative="1" as="geometry">
            <mxPoint x="390" y="290" as="sourcePoint" />
            <mxPoint x="240" y="290" as="targetPoint" />
          </mxGeometry>
        </mxCell>
        <mxCell id="EvLjOWbeyxVQ1FRXQmD_-14" value="Login Success" style="text;html=1;align=center;verticalAlign=middle;whiteSpace=wrap;rounded=0;" vertex="1" parent="1">
          <mxGeometry x="280" y="260" width="60" height="30" as="geometry" />
        </mxCell>
        <mxCell id="EvLjOWbeyxVQ1FRXQmD_-15" value="" style="endArrow=classic;html=1;rounded=0;" edge="1" parent="1">
          <mxGeometry width="50" height="50" relative="1" as="geometry">
            <mxPoint x="80" y="350" as="sourcePoint" />
            <mxPoint x="230" y="350" as="targetPoint" />
          </mxGeometry>
        </mxCell>
        <mxCell id="EvLjOWbeyxVQ1FRXQmD_-17" value="DirectMsg Message" style="text;html=1;align=center;verticalAlign=middle;resizable=0;points=[];autosize=1;strokeColor=none;fillColor=none;" vertex="1" parent="1">
          <mxGeometry x="85" y="320" width="130" height="30" as="geometry" />
        </mxCell>
        <mxCell id="EvLjOWbeyxVQ1FRXQmD_-18" value="" style="endArrow=classic;html=1;rounded=0;" edge="1" parent="1">
          <mxGeometry width="50" height="50" relative="1" as="geometry">
            <mxPoint x="240" y="364.5" as="sourcePoint" />
            <mxPoint x="550" y="365" as="targetPoint" />
          </mxGeometry>
        </mxCell>
        <mxCell id="EvLjOWbeyxVQ1FRXQmD_-19" value="DirectMsg Message" style="text;html=1;align=center;verticalAlign=middle;resizable=0;points=[];autosize=1;strokeColor=none;fillColor=none;" vertex="1" parent="1">
          <mxGeometry x="330" y="340" width="130" height="30" as="geometry" />
        </mxCell>
        <mxCell id="EvLjOWbeyxVQ1FRXQmD_-22" value="" style="endArrow=classic;html=1;rounded=0;" edge="1" parent="1">
          <mxGeometry width="50" height="50" relative="1" as="geometry">
            <mxPoint x="550" y="400" as="sourcePoint" />
            <mxPoint x="240" y="400" as="targetPoint" />
          </mxGeometry>
        </mxCell>
        <mxCell id="EvLjOWbeyxVQ1FRXQmD_-23" value="Message Sent" style="text;html=1;align=center;verticalAlign=middle;resizable=0;points=[];autosize=1;strokeColor=none;fillColor=none;" vertex="1" parent="1">
          <mxGeometry x="345" y="370" width="100" height="30" as="geometry" />
        </mxCell>
        <mxCell id="EvLjOWbeyxVQ1FRXQmD_-26" value="" style="endArrow=classic;html=1;rounded=0;" edge="1" parent="1">
          <mxGeometry width="50" height="50" relative="1" as="geometry">
            <mxPoint x="230" y="310" as="sourcePoint" />
            <mxPoint x="80" y="310" as="targetPoint" />
          </mxGeometry>
        </mxCell>
        <mxCell id="EvLjOWbeyxVQ1FRXQmD_-27" value="Login Success" style="text;html=1;align=center;verticalAlign=middle;whiteSpace=wrap;rounded=0;" vertex="1" parent="1">
          <mxGeometry x="120" y="280" width="60" height="30" as="geometry" />
        </mxCell>
        <mxCell id="EvLjOWbeyxVQ1FRXQmD_-28" value="" style="endArrow=classic;html=1;rounded=0;" edge="1" parent="1">
          <mxGeometry width="50" height="50" relative="1" as="geometry">
            <mxPoint x="225" y="420" as="sourcePoint" />
            <mxPoint x="75" y="420" as="targetPoint" />
          </mxGeometry>
        </mxCell>
        <mxCell id="EvLjOWbeyxVQ1FRXQmD_-29" value="Message Sent" style="text;html=1;align=center;verticalAlign=middle;whiteSpace=wrap;rounded=0;" vertex="1" parent="1">
          <mxGeometry x="115" y="390" width="60" height="30" as="geometry" />
        </mxCell>
        <mxCell id="EvLjOWbeyxVQ1FRXQmD_-30" value="" style="endArrow=classic;html=1;rounded=0;" edge="1" parent="1">
          <mxGeometry width="50" height="50" relative="1" as="geometry">
            <mxPoint x="77.5" y="470" as="sourcePoint" />
            <mxPoint x="227.5" y="470" as="targetPoint" />
          </mxGeometry>
        </mxCell>
        <mxCell id="EvLjOWbeyxVQ1FRXQmD_-31" value="GroupChatMsg Message" style="text;html=1;align=center;verticalAlign=middle;resizable=0;points=[];autosize=1;strokeColor=none;fillColor=none;" vertex="1" parent="1">
          <mxGeometry x="67.5" y="440" width="160" height="30" as="geometry" />
        </mxCell>
        <mxCell id="EvLjOWbeyxVQ1FRXQmD_-32" value="" style="endArrow=classic;html=1;rounded=0;" edge="1" parent="1">
          <mxGeometry width="50" height="50" relative="1" as="geometry">
            <mxPoint x="237.5" y="484.5" as="sourcePoint" />
            <mxPoint x="710" y="485" as="targetPoint" />
          </mxGeometry>
        </mxCell>
        <mxCell id="EvLjOWbeyxVQ1FRXQmD_-33" value="GroupChatMsg Message" style="text;html=1;align=center;verticalAlign=middle;resizable=0;points=[];autosize=1;strokeColor=none;fillColor=none;" vertex="1" parent="1">
          <mxGeometry x="385" y="460" width="160" height="30" as="geometry" />
        </mxCell>
        <mxCell id="EvLjOWbeyxVQ1FRXQmD_-34" value="" style="endArrow=classic;html=1;rounded=0;" edge="1" parent="1">
          <mxGeometry width="50" height="50" relative="1" as="geometry">
            <mxPoint x="710" y="520" as="sourcePoint" />
            <mxPoint x="237.5" y="520" as="targetPoint" />
          </mxGeometry>
        </mxCell>
        <mxCell id="EvLjOWbeyxVQ1FRXQmD_-35" value="Message Sent" style="text;html=1;align=center;verticalAlign=middle;resizable=0;points=[];autosize=1;strokeColor=none;fillColor=none;" vertex="1" parent="1">
          <mxGeometry x="415" y="490" width="100" height="30" as="geometry" />
        </mxCell>
        <mxCell id="EvLjOWbeyxVQ1FRXQmD_-36" value="" style="endArrow=classic;html=1;rounded=0;" edge="1" parent="1">
          <mxGeometry width="50" height="50" relative="1" as="geometry">
            <mxPoint x="222.5" y="540" as="sourcePoint" />
            <mxPoint x="72.5" y="540" as="targetPoint" />
          </mxGeometry>
        </mxCell>
        <mxCell id="EvLjOWbeyxVQ1FRXQmD_-37" value="Message Sent" style="text;html=1;align=center;verticalAlign=middle;whiteSpace=wrap;rounded=0;" vertex="1" parent="1">
          <mxGeometry x="112.5" y="510" width="60" height="30" as="geometry" />
        </mxCell>
        <mxCell id="EvLjOWbeyxVQ1FRXQmD_-38" value="" style="endArrow=classic;html=1;rounded=0;" edge="1" parent="1">
          <mxGeometry width="50" height="50" relative="1" as="geometry">
            <mxPoint x="83.75" y="580" as="sourcePoint" />
            <mxPoint x="233.75" y="580" as="targetPoint" />
          </mxGeometry>
        </mxCell>
        <mxCell id="EvLjOWbeyxVQ1FRXQmD_-39" value="ContactListMsg Message" style="text;html=1;align=center;verticalAlign=middle;resizable=0;points=[];autosize=1;strokeColor=none;fillColor=none;" vertex="1" parent="1">
          <mxGeometry x="73.75" y="550" width="160" height="30" as="geometry" />
        </mxCell>
        <mxCell id="EvLjOWbeyxVQ1FRXQmD_-40" value="" style="endArrow=classic;html=1;rounded=0;" edge="1" parent="1">
          <mxGeometry width="50" height="50" relative="1" as="geometry">
            <mxPoint x="243.75" y="594.5" as="sourcePoint" />
            <mxPoint x="890" y="595" as="targetPoint" />
          </mxGeometry>
        </mxCell>
        <mxCell id="EvLjOWbeyxVQ1FRXQmD_-41" value="ContactListMsg Message" style="text;html=1;align=center;verticalAlign=middle;resizable=0;points=[];autosize=1;strokeColor=none;fillColor=none;" vertex="1" parent="1">
          <mxGeometry x="490" y="570" width="160" height="30" as="geometry" />
        </mxCell>
        <mxCell id="EvLjOWbeyxVQ1FRXQmD_-42" value="" style="endArrow=classic;html=1;rounded=0;" edge="1" parent="1">
          <mxGeometry width="50" height="50" relative="1" as="geometry">
            <mxPoint x="890" y="630" as="sourcePoint" />
            <mxPoint x="244" y="630" as="targetPoint" />
          </mxGeometry>
        </mxCell>
        <mxCell id="EvLjOWbeyxVQ1FRXQmD_-43" value="Message Sent" style="text;html=1;align=center;verticalAlign=middle;resizable=0;points=[];autosize=1;strokeColor=none;fillColor=none;" vertex="1" parent="1">
          <mxGeometry x="510" y="600" width="100" height="30" as="geometry" />
        </mxCell>
        <mxCell id="EvLjOWbeyxVQ1FRXQmD_-44" value="" style="endArrow=classic;html=1;rounded=0;" edge="1" parent="1">
          <mxGeometry width="50" height="50" relative="1" as="geometry">
            <mxPoint x="228.75" y="650" as="sourcePoint" />
            <mxPoint x="78.75" y="650" as="targetPoint" />
          </mxGeometry>
        </mxCell>
        <mxCell id="EvLjOWbeyxVQ1FRXQmD_-45" value="Message Sent" style="text;html=1;align=center;verticalAlign=middle;whiteSpace=wrap;rounded=0;" vertex="1" parent="1">
          <mxGeometry x="118.75" y="620" width="60" height="30" as="geometry" />
        </mxCell>
        <mxCell id="EvLjOWbeyxVQ1FRXQmD_-46" value="User&lt;div&gt;&lt;br&gt;&lt;/div&gt;" style="shape=umlActor;verticalLabelPosition=bottom;verticalAlign=top;html=1;outlineConnect=0;" vertex="1" parent="1">
          <mxGeometry y="185" width="30" height="60" as="geometry" />
        </mxCell>
      </root>
    </mxGraphModel>
  </diagram>
  <diagram id="A5SaMljv7vZKvH0Ynjxl" name="Login_Sequence">
    <mxGraphModel dx="954" dy="615" grid="1" gridSize="10" guides="1" tooltips="1" connect="1" arrows="1" fold="1" page="1" pageScale="1" pageWidth="1654" pageHeight="1169" math="0" shadow="0">
      <root>
        <mxCell id="0" />
        <mxCell id="1" parent="0" />
        <mxCell id="WH2RaVnlgmuL-WKISgTv-1" value="Client" style="shape=umlLifeline;perimeter=lifelinePerimeter;whiteSpace=wrap;html=1;container=1;dropTarget=0;collapsible=0;recursiveResize=0;outlineConnect=0;portConstraint=eastwest;newEdgeStyle={&quot;curved&quot;:0,&quot;rounded&quot;:0};" vertex="1" parent="1">
          <mxGeometry x="560" y="170" width="100" height="300" as="geometry" />
        </mxCell>
        <mxCell id="WH2RaVnlgmuL-WKISgTv-2" value="Server" style="shape=umlLifeline;perimeter=lifelinePerimeter;whiteSpace=wrap;html=1;container=1;dropTarget=0;collapsible=0;recursiveResize=0;outlineConnect=0;portConstraint=eastwest;newEdgeStyle={&quot;curved&quot;:0,&quot;rounded&quot;:0};" vertex="1" parent="1">
          <mxGeometry x="840" y="170" width="100" height="300" as="geometry" />
        </mxCell>
        <mxCell id="WH2RaVnlgmuL-WKISgTv-3" value="Client_Hello" style="html=1;verticalAlign=bottom;endArrow=block;curved=0;rounded=0;" edge="1" parent="1" target="WH2RaVnlgmuL-WKISgTv-2">
          <mxGeometry width="80" relative="1" as="geometry">
            <mxPoint x="610" y="260" as="sourcePoint" />
            <mxPoint x="690" y="260" as="targetPoint" />
          </mxGeometry>
        </mxCell>
        <mxCell id="WH2RaVnlgmuL-WKISgTv-4" value="Server_Hello" style="html=1;verticalAlign=bottom;endArrow=block;curved=0;rounded=0;" edge="1" parent="1" target="WH2RaVnlgmuL-WKISgTv-1">
          <mxGeometry width="80" relative="1" as="geometry">
            <mxPoint x="890" y="290" as="sourcePoint" />
            <mxPoint x="810" y="290" as="targetPoint" />
          </mxGeometry>
        </mxCell>
        <mxCell id="WH2RaVnlgmuL-WKISgTv-5" value="Login_Request" style="html=1;verticalAlign=bottom;endArrow=block;curved=0;rounded=0;" edge="1" parent="1">
          <mxGeometry width="80" relative="1" as="geometry">
            <mxPoint x="890" y="319.5" as="sourcePoint" />
            <mxPoint x="610" y="319.5" as="targetPoint" />
          </mxGeometry>
        </mxCell>
        <mxCell id="WH2RaVnlgmuL-WKISgTv-7" value="Login_Credential" style="html=1;verticalAlign=bottom;endArrow=block;curved=0;rounded=0;" edge="1" parent="1">
          <mxGeometry width="80" relative="1" as="geometry">
            <mxPoint x="610" y="350" as="sourcePoint" />
            <mxPoint x="889.5" y="350" as="targetPoint" />
          </mxGeometry>
        </mxCell>
        <mxCell id="WH2RaVnlgmuL-WKISgTv-8" value="Login_Request" style="html=1;verticalAlign=bottom;endArrow=block;curved=0;rounded=0;" edge="1" parent="1">
          <mxGeometry width="80" relative="1" as="geometry">
            <mxPoint x="890" y="457" as="sourcePoint" />
            <mxPoint x="610" y="457" as="targetPoint" />
          </mxGeometry>
        </mxCell>
        <mxCell id="WH2RaVnlgmuL-WKISgTv-9" value="Successful_Login" style="html=1;verticalAlign=bottom;endArrow=block;curved=0;rounded=0;" edge="1" parent="1">
          <mxGeometry width="80" relative="1" as="geometry">
            <mxPoint x="890" y="380" as="sourcePoint" />
            <mxPoint x="610" y="380" as="targetPoint" />
          </mxGeometry>
        </mxCell>
        <mxCell id="WH2RaVnlgmuL-WKISgTv-10" value="Login_Credential" style="html=1;verticalAlign=bottom;endArrow=block;curved=0;rounded=0;" edge="1" parent="1">
          <mxGeometry width="80" relative="1" as="geometry">
            <mxPoint x="610" y="427" as="sourcePoint" />
            <mxPoint x="889.5" y="427" as="targetPoint" />
          </mxGeometry>
        </mxCell>
        <mxCell id="WH2RaVnlgmuL-WKISgTv-11" value="alt" style="shape=umlFrame;whiteSpace=wrap;html=1;pointerEvents=0;shadow=1;dashed=1;" vertex="1" parent="1">
          <mxGeometry x="580" y="390" width="320" height="90" as="geometry" />
        </mxCell>
        <mxCell id="WH2RaVnlgmuL-WKISgTv-12" value="Client" style="shape=umlLifeline;perimeter=lifelinePerimeter;whiteSpace=wrap;html=1;container=1;dropTarget=0;collapsible=0;recursiveResize=0;outlineConnect=0;portConstraint=eastwest;newEdgeStyle={&quot;curved&quot;:0,&quot;rounded&quot;:0};" vertex="1" parent="1">
          <mxGeometry x="560" y="560" width="100" height="300" as="geometry" />
        </mxCell>
        <mxCell id="WH2RaVnlgmuL-WKISgTv-13" value="Server" style="shape=umlLifeline;perimeter=lifelinePerimeter;whiteSpace=wrap;html=1;container=1;dropTarget=0;collapsible=0;recursiveResize=0;outlineConnect=0;portConstraint=eastwest;newEdgeStyle={&quot;curved&quot;:0,&quot;rounded&quot;:0};" vertex="1" parent="1">
          <mxGeometry x="840" y="560" width="100" height="300" as="geometry" />
        </mxCell>
        <mxCell id="WH2RaVnlgmuL-WKISgTv-14" value="Client_Logout_Request" style="html=1;verticalAlign=bottom;endArrow=block;curved=0;rounded=0;" edge="1" parent="1" target="WH2RaVnlgmuL-WKISgTv-13">
          <mxGeometry width="80" relative="1" as="geometry">
            <mxPoint x="610" y="650" as="sourcePoint" />
            <mxPoint x="690" y="650" as="targetPoint" />
          </mxGeometry>
        </mxCell>
        <mxCell id="WH2RaVnlgmuL-WKISgTv-18" value="Login_Request" style="html=1;verticalAlign=bottom;endArrow=block;curved=0;rounded=0;" edge="1" parent="1">
          <mxGeometry width="80" relative="1" as="geometry">
            <mxPoint x="890" y="787" as="sourcePoint" />
            <mxPoint x="610" y="787" as="targetPoint" />
          </mxGeometry>
        </mxCell>
        <mxCell id="WH2RaVnlgmuL-WKISgTv-19" value="Successful_Logout" style="html=1;verticalAlign=bottom;endArrow=block;curved=0;rounded=0;" edge="1" parent="1">
          <mxGeometry width="80" relative="1" as="geometry">
            <mxPoint x="890" y="690" as="sourcePoint" />
            <mxPoint x="610" y="690" as="targetPoint" />
          </mxGeometry>
        </mxCell>
        <mxCell id="WH2RaVnlgmuL-WKISgTv-20" value="Client_Logout_Request" style="html=1;verticalAlign=bottom;endArrow=block;curved=0;rounded=0;" edge="1" parent="1">
          <mxGeometry width="80" relative="1" as="geometry">
            <mxPoint x="610" y="757" as="sourcePoint" />
            <mxPoint x="889.5" y="757" as="targetPoint" />
          </mxGeometry>
        </mxCell>
        <mxCell id="WH2RaVnlgmuL-WKISgTv-21" value="alt" style="shape=umlFrame;whiteSpace=wrap;html=1;pointerEvents=0;shadow=1;dashed=1;" vertex="1" parent="1">
          <mxGeometry x="580" y="720" width="320" height="90" as="geometry" />
        </mxCell>
        <mxCell id="WH2RaVnlgmuL-WKISgTv-22" value="&lt;font style=&quot;font-size: 18px;&quot;&gt;Logout Sequence&lt;/font&gt;" style="text;align=center;fontStyle=1;verticalAlign=middle;spacingLeft=3;spacingRight=3;strokeColor=none;rotatable=0;points=[[0,0.5],[1,0.5]];portConstraint=eastwest;html=1;" vertex="1" parent="1">
          <mxGeometry x="720" y="540" width="80" height="26" as="geometry" />
        </mxCell>
        <mxCell id="WH2RaVnlgmuL-WKISgTv-23" value="&lt;font style=&quot;font-size: 18px;&quot;&gt;Login Sequence&lt;/font&gt;" style="text;align=center;fontStyle=1;verticalAlign=middle;spacingLeft=3;spacingRight=3;strokeColor=none;rotatable=0;points=[[0,0.5],[1,0.5]];portConstraint=eastwest;html=1;" vertex="1" parent="1">
          <mxGeometry x="720" y="150" width="80" height="26" as="geometry" />
        </mxCell>
      </root>
    </mxGraphModel>
  </diagram>
</mxfile>
